Coordinates
version=1
nRows=21
nColumns=19
inDegrees=yes

Units are S.I. units (second, meters, Newtons, ...)
If the header above contains a line with 'inDegrees', this indicates whether rotational values are in degrees (yes) or radians (no).

endheader
time	pelvis_tilt	pelvis_list	pelvis_rotation	pelvis_tx	pelvis_ty	pelvis_tz	hip_flexion_r	hip_adduction_r	hip_rotation_r	knee_angle_r	knee_angle_r_beta	ankle_angle_r	hip_flexion_l	hip_adduction_l	hip_rotation_l	knee_angle_l	knee_angle_l_beta	ankle_angle_l
     10.99333333	     -1.91227996	     -4.62819650	      1.48720384	      2.14263735	      0.91150650	      1.00254786	     27.01514740	      5.86223615	    -15.96774678	     19.92086164	      0.34768463	    -11.53329281	    -19.82273647	     -7.84763678	    -17.34686888	     43.65852587	      0.76198502	    -12.40163676
     11.00000000	     -1.23923092	     -5.02508080	      1.19167281	      2.14275224	      0.90760894	      1.00245033	     26.68516927	      6.16470134	    -16.86145186	     22.13175357	      0.38627197	    -10.45126528	    -20.02956561	     -8.29922295	    -16.90582027	     46.34735138	      0.80891388	    -12.23011070
     11.00666667	     -0.80981651	     -5.29160705	      0.92897639	      2.14280875	      0.90311654	      1.00232992	     26.64834917	      6.28869444	    -17.49728926	     24.69082614	      0.43093621	     -8.84774648	    -19.83785848	     -8.57014610	    -16.20121622	     49.14948527	      0.85782034	    -12.16753277
     11.01333333	     -0.28754636	     -5.56348801	      0.62448110	      2.14278066	      0.89840665	      1.00214406	     26.41353871	      6.48480377	    -17.76437209	     27.26456343	      0.47585640	     -6.81230401	    -19.69670032	     -8.85706547	    -15.69442623	     52.01078952	      0.90775952	    -12.19510488
     11.02000000	      0.45653559	     -5.91789413	      0.31444144	      2.14266275	      0.89364805	      1.00198436	     25.83481741	      6.83807596	    -17.76663311	     29.79468046	      0.52001527	     -4.41684964	    -19.75972625	     -9.26193907	    -15.35861251	     54.89146966	      0.95803688	    -12.29724812
     11.02666667	      0.99989169	     -6.07267368	      0.02388404	      2.14230349	      0.88853552	      1.00186064	     25.47723479	      7.00043750	    -17.51882887	     32.47314430	      0.56676329	     -1.65018236	    -19.45492638	     -9.43290095	    -14.83062728	     57.84694993	      1.00961974	    -12.41931826
     11.03333333	      1.59276304	     -6.30730284	     -0.29646972	      2.14184922	      0.88331217	      1.00181429	     24.96249493	      7.32012064	    -17.11159231	     35.03104765	      0.61140712	      1.35928079	    -19.16358969	     -9.73505545	    -14.49801921	     60.82197970	      1.06154380	    -12.48437066
     11.04000000	      2.28497545	     -6.66324700	     -0.57185228	      2.14121467	      0.87818371	      1.00182924	     24.19245205	      7.84923397	    -16.56833128	     37.30742546	      0.65113741	      4.48923142	    -18.90068184	    -10.26388366	    -14.30210333	     63.85238137	      1.11443429	    -12.54862538
     11.04666667	      2.59454632	     -6.73312174	     -0.92246108	      2.14021884	      0.87266746	      1.00194309	     23.91693418	      8.07147866	    -15.91651926	     39.78312834	      0.69434658	      7.57571140	    -18.06207455	    -10.40624407	    -13.87761632	     66.91611387	      1.16790651	    -12.39609640
     11.05333333	      3.24616509	     -7.02371893	     -1.18585387	      2.13907075	      0.86766349	      1.00204791	     23.09562639	      8.55617477	    -15.32277188	     41.89059452	      0.73112880	     10.57077213	    -17.55922402	    -10.87502745	    -13.60389191	     69.92699618	      1.22045632	    -12.11512960
     11.06000000	      3.89271585	     -7.29461644	     -1.42831980	      2.13767710	      0.86298845	      1.00216751	     22.17692873	      9.03667337	    -14.70826900	     43.75880595	      0.76373524	     13.35500173	    -16.94614454	    -11.35141834	    -13.31263769	     72.88551607	      1.27209223	    -11.81491986
     11.06666667	      3.89368679	     -7.36755486	     -1.64276228	      2.13595203	      0.85798290	      1.00232772	     21.98972718	      9.27662180	    -14.14298772	     45.63799154	      0.79653322	     15.83751330	    -15.37905687	    -11.58861551	    -12.66011163	     75.96136592	      1.32577594	    -11.18012962
     11.07333333	      4.44771333	     -7.59908542	     -1.82690778	      2.13409930	      0.85394913	      1.00247071	     21.03393454	      9.70153415	    -13.57973537	     47.16375798	      0.82316286	     18.08329827	    -14.43937877	    -12.01696388	    -12.18709564	     78.79588052	      1.37524755	    -10.49656345
     11.08000000	      4.42258453	     -7.69159560	     -1.87700408	      2.13202456	      0.84984402	      1.00253812	     20.67466257	      9.90095088	    -13.22573496	     48.57254380	      0.84775082	     19.97970782	    -12.59400907	    -12.30275544	    -11.31019330	     81.69808781	      1.42590062	     -9.66939069
     11.08666667	      4.64580934	     -7.77705397	     -1.93614219	      2.12980349	      0.84652698	      1.00273938	     19.92814157	     10.12368424	    -12.80300528	     49.73540752	      0.86804662	     21.62272908	    -10.99262574	    -12.58155192	    -10.51188663	     84.37030234	      1.47253957	     -8.76728359
     11.09333333	      4.66113166	     -7.80590036	     -1.91733482	      2.12751923	      0.84351222	      1.00283767	     19.32173173	     10.24131249	    -12.49142635	     50.72889894	      0.88538631	     23.01072554	     -9.02118360	    -12.75471194	     -9.51541589	     86.92623401	      1.51714899	     -7.84629771
     11.10000000	      4.59278587	     -7.75269161	     -1.90076817	      2.12516369	      0.84098242	      1.00302859	     18.70725024	     10.27728706	    -12.16072971	     51.53219084	      0.89940640	     24.19423306	     -6.87929926	    -12.82048237	     -8.49544608	     89.29112974	      1.55842421	     -6.92403040
     11.10666667	      4.60691237	     -7.70504002	     -1.79788516	      2.12281345	      0.83910046	      1.00321309	     17.86774165	     10.29190547	    -11.92564432	     52.07735508	      0.90892131	     25.14469042	     -4.77668876	    -12.87859691	     -7.41705929	     91.42694808	      1.59570127	     -5.92713006
     11.11333333	      4.40698335	     -7.53438812	     -1.75613685	      2.12053293	      0.83756289	      1.00353832	     17.16826010	     10.20581010	    -11.61094692	     52.47774369	      0.91590941	     25.97458981	     -2.40229028	    -12.77571668	     -6.38110311	     93.33069861	      1.62892798	     -5.02286448
     11.12000000	      4.25127696	     -7.36259477	     -1.69016417	      2.11834005	      0.83661947	      1.00392927	     16.28638095	     10.10816801	    -11.33926123	     52.64740946	      0.91887064	     26.62478729	     -0.07856906	    -12.66367118	     -5.38982312	     94.96344358	      1.65742476	     -4.10448315
     11.12666667	      4.17455511	     -7.19020557	     -1.59325645	      2.11636560	      0.83634685	      1.00436271	     15.16456256	     10.01157662	    -11.09042754	     52.54749943	      0.91712688	     27.13029445	      2.12428150	    -12.55191638	     -4.46149205	     96.28155996	      1.68043023	     -3.24822184
